<svg xmlns="http://www.w3.org/2000/svg" enable-background="new 0 0 24 24" viewBox="0 0 24 24"><path fill="#3292C8" d="M1.54 9.839L0 9.987l.71 4.164h1.75c.77-1.007 1.72-2.428 1.72-3.523 0-.345-.07-.612-.24-.878L2.54 10.026c.089.188.149.414.149.74 0 .602-.43 1.48-.779 2.032L1.54 9.839 1.54 9.839zM8.16 10.934c0-.682-.5-1.165-1.379-1.165-1.601 0-2.38 1.373-2.38 2.665 0 1.006.479 1.796 1.809 1.796.531 0 1.07-.109 1.42-.276l.19-1.243c-.5.246-.87.344-1.27.344-.367 0-.634-.196-.639-.681C6.731 12.364 8.16 12.019 8.16 10.934L8.16 10.934zM5.939 11.576c.041-.474.41-.82.701-.82.16 0 .299.099.299.296C6.939 11.448 6.22 11.576 5.939 11.576L5.939 11.576zM10.59 14.152h1.5l.46-2.882c.021-.156.049-.379.05-.546-.001-.57-.271-.964-1.03-.964-.57 0-.98.228-1.29.425l-.02-.346h-1.3l-.68 4.312h1.5l.479-3.03c.12-.059.32-.148.521-.148.14 0 .26.039.26.237l-.03.296L10.59 14.152 10.59 14.152zM18.45 9.76c-.57 0-.97.178-1.4.474-.16-.277-.46-.474-.94-.474-.54 0-.94.217-1.24.435l-.05-.355H13.54l-.69 4.302h1.511l.47-3.02c.13-.059.32-.148.52-.148.151 0 .27.049.27.266l-.02.208-.429 2.704h1.5l.481-3.03c.13-.069.319-.148.5-.148.149 0 .27.049.27.266l-.02.217-.431 2.694h1.5l.458-2.869c.03-.179.049-.364.052-.557C19.48 10.154 19.21 9.76 18.45 9.76L18.45 9.76z"/><polygon fill="#3292C8" points="19.43 11.27 19.428 11.283 19.427 11.292"/><path fill="#3292C8" d="M22.269,9.76c-1.67,0-2.409,1.274-2.409,2.635c0,1.036,0.43,1.855,1.7,1.855c1.72,0,2.44-1.392,2.44-2.733C24,10.5,23.54,9.76,22.269,9.76L22.269,9.76z M21.77,13.106c-0.27,0-0.38-0.248-0.38-0.651c0-0.523,0.12-1.56,0.72-1.56c0.26,0,0.35,0.248,0.35,0.593C22.46,12.02,22.33,13.106,21.77,13.106L21.77,13.106z"/><path fill="#2C7FAE" d="M3.82 12H2.344c-.135.293-.291.573-.434.799L1.81 12H.343l.367 2.152h1.75C2.933 13.533 3.473 12.759 3.82 12L3.82 12zM7.453 12H4.43c-.02.145-.029.29-.029.435 0 1.006.479 1.796 1.809 1.796.531 0 1.07-.109 1.42-.276l.19-1.243c-.5.246-.87.344-1.27.344-.367 0-.634-.196-.639-.681C6.355 12.369 6.976 12.265 7.453 12L7.453 12zM10.121 12H8.619L8.28 14.152h1.5L10.121 12 10.121 12zM12.433 12h-1.502l-.342 2.152h1.5L12.433 12 12.433 12zM14.694 12h-1.5l-.344 2.142h1.511L14.694 12 14.694 12zM17.011 12h-1.499l-.342 2.152h1.5L17.011 12 17.011 12zM19.313 12h-1.5l-.344 2.152h1.5L19.313 12 19.313 12z"/><path fill="#DEDEDE" d="M22.427,12h-1.01c-0.02,0.167-0.027,0.326-0.027,0.454c0,0.404,0.11,0.651,0.38,0.651C22.181,13.106,22.36,12.521,22.427,12L22.427,12z"/><path fill="#2C7FAE" d="M23.969,12h-1.542c-0.066,0.521-0.246,1.106-0.657,1.106c-0.27,0-0.38-0.248-0.38-0.651c0-0.128,0.007-0.287,0.027-0.454h-1.535c-0.014,0.13-0.021,0.262-0.021,0.395c0,1.036,0.43,1.855,1.7,1.855C23.074,14.25,23.813,13.173,23.969,12L23.969,12z"/></svg>